<svg width="50" height="50" viewBox="0 0 50 50" fill="none" xmlns="http://www.w3.org/2000/svg">
<path d="M0 0H50V50H0V0Z" fill="#11111b"/>
<path d="M24.4399 43.7298C23.1152 40.5183 21.0878 37.5201 18.5652 35.0385C15.8582 32.3772 11.1814 29.087 7.62205 27.3353L7 27.0321L9.38444 24.7077L11.7574 22.3945V17.3975V12.4006L15.4781 16.0276L19.1872 19.6434H24.5436H29.8999L33.6206 16.095L37.3297 12.5466V17.4761V22.3945L39.7142 24.7189C41.0274 25.999 42.0756 27.0658 42.0526 27.0883C42.018 27.1219 41.5688 27.3465 41.0504 27.5936C36.5695 29.7832 30.8099 34.2973 28.2757 37.6099C26.8934 39.4178 25.4766 41.8321 24.7624 43.6175L24.5781 44.0667L24.4399 43.7298ZM21.5486 28.7614C21.5486 27.6946 21.5141 27.515 21.3298 27.3465C21.0763 27.1219 18.162 26.5043 18.0238 26.6391C17.9086 26.7402 21.1915 29.9741 21.3988 29.9741C21.514 29.9741 21.5486 29.6597 21.5486 28.7614ZM29.5313 28.4133C30.3953 27.5486 31.1094 26.7963 31.1094 26.7289C31.1094 26.5493 30.7869 26.5717 29.2894 26.8861C27.5616 27.2455 27.5385 27.2679 27.5385 28.7277C27.5385 29.8169 27.5731 29.9741 27.815 29.9741C27.8841 29.9741 28.6559 29.2667 29.5313 28.4133Z" fill="#1e1e2e"/>
<path d="M22.1935 12.4674L22.4469 11.0526L21.4103 10.0309C20.2239 8.85193 20.1433 8.99789 22.1359 8.73965L23.2417 8.60491L23.9097 7.30246L24.5662 6L25.2343 7.30246L25.9023 8.59368L27.0426 8.73965C29.0813 8.99789 29.0007 8.86316 27.7567 9.98597L26.6856 10.9628L26.9274 12.3551C27.0656 13.1186 27.1578 13.7586 27.1347 13.7811C27.1117 13.8035 26.5588 13.5453 25.8908 13.1972C25.2343 12.8491 24.6353 12.5684 24.5547 12.5684C24.4856 12.5684 23.8636 12.8604 23.1841 13.2196L21.9286 13.8709L22.1935 12.4674Z" fill="#1e1e2e"/>
</svg>
